<svg width="8" height="8" viewBox="0 0 8 8" fill="none" xmlns="http://www.w3.org/2000/svg">
<path d="M1.20001 4.00002C1.20001 3.66865 1.46864 3.40002 1.80001 3.40002C2.13138 3.40002 2.40001 3.66865 2.40001 4.00002C2.40001 4.3314 2.13138 4.60002 1.80001 4.60002C1.46864 4.60002 1.20001 4.3314 1.20001 4.00002Z" fill="#2063FF"/>
<path d="M3.40001 4.00002C3.40001 3.66865 3.66864 3.40002 4.00001 3.40002C4.33138 3.40002 4.60001 3.66865 4.60001 4.00002C4.60001 4.3314 4.33138 4.60002 4.00001 4.60002C3.66864 4.60002 3.40001 4.3314 3.40001 4.00002Z" fill="#2063FF"/>
<path d="M6.20001 3.40002C5.86864 3.40002 5.60001 3.66865 5.60001 4.00002C5.60001 4.3314 5.86864 4.60002 6.20001 4.60002C6.53138 4.60002 6.80001 4.3314 6.80001 4.00002C6.80001 3.66865 6.53138 3.40002 6.20001 3.40002Z" fill="#2063FF"/>
</svg>
