<svg width="16" height="16" viewBox="0 0 16 16" fill="none" xmlns="http://www.w3.org/2000/svg">
<path fill-rule="evenodd" clip-rule="evenodd" d="M12.6464 2.43934C12.0606 1.85355 11.1109 1.85355 10.5251 2.43934L3.23223 9.73223C2.25592 10.7085 2.25592 12.2915 3.23223 13.2678C4.20854 14.2441 5.79146 14.2441 6.76777 13.2678L11.8964 8.1391C12.0917 7.94384 12.4083 7.94384 12.6035 8.1391C12.7988 8.33436 12.7988 8.65095 12.6035 8.84621L7.47487 13.9749C6.10804 15.3417 3.89196 15.3417 2.52513 13.9749C1.15829 12.608 1.15829 10.392 2.52513 9.02512L9.81796 1.73223C10.7943 0.755923 12.3772 0.755922 13.3535 1.73223C14.3298 2.70854 14.3298 4.29146 13.3535 5.26777L6.0649 12.5564C6.06301 12.5583 6.06111 12.5602 6.05919 12.5621L6.05461 12.5667L6.05314 12.5681L6.05164 12.5696C5.4651 13.1464 4.52213 13.1434 3.93934 12.5607C3.35355 11.9749 3.35355 11.0251 3.93934 10.4393L9.14633 5.23222C9.34159 5.03695 9.65818 5.03695 9.85344 5.23221C10.0487 5.42747 10.0487 5.74405 9.85345 5.93932L4.64645 11.1464C4.45119 11.3417 4.45119 11.6583 4.64645 11.8535C4.84028 12.0474 5.15371 12.0488 5.34922 11.8578L12.6464 4.56066C13.2322 3.97487 13.2322 3.02513 12.6464 2.43934Z" fill="#515151"/>
</svg>
