<svg width="20" height="20" viewBox="0 0 20 20" fill="none" xmlns="http://www.w3.org/2000/svg">
<path d="M2.89849 2.00359C2.67787 1.9395 2.43988 2.00161 2.27872 2.16534C2.11756 2.32906 2.05921 2.568 2.12677 2.78758L4.15367 9.375H11.2501C11.5953 9.375 11.8751 9.65482 11.8751 10C11.8751 10.3452 11.5953 10.625 11.2501 10.625H4.15368L2.12685 17.2122C2.05929 17.4318 2.11764 17.6707 2.2788 17.8344C2.43996 17.9982 2.67795 18.0603 2.89857 17.9962C8.48073 16.3745 13.6646 13.8178 18.2695 10.5073C18.4329 10.3898 18.5297 10.201 18.5297 9.99979C18.5297 9.79862 18.4328 9.60975 18.2695 9.49233C13.6646 6.18181 8.48067 3.62517 2.89849 2.00359Z" fill="#FDFDFD"/>
</svg>
