<svg width="16" height="16" viewBox="0 0 16 16" fill="none" xmlns="http://www.w3.org/2000/svg">
<path d="M8.59995 3.8C8.59995 3.46863 8.33132 3.2 7.99995 3.2C7.66858 3.2 7.39995 3.46863 7.39995 3.8V7.4H3.79995C3.46858 7.4 3.19995 7.66863 3.19995 8C3.19995 8.33137 3.46858 8.6 3.79995 8.6L7.39995 8.6V12.2C7.39995 12.5314 7.66858 12.8 7.99995 12.8C8.33132 12.8 8.59995 12.5314 8.59995 12.2V8.6L12.2 8.6C12.5313 8.6 12.8 8.33137 12.8 8C12.8 7.66863 12.5313 7.4 12.2 7.4H8.59995V3.8Z" fill="#FDFDFD"/>
</svg>
