<svg width="18" height="18" viewBox="0 0 18 18" fill="none" xmlns="http://www.w3.org/2000/svg">
<path fill-rule="evenodd" clip-rule="evenodd" d="M6.66634 4.34717C6.14445 4.16274 5.58328 4.0625 5 4.0625C2.23858 4.0625 0 6.30108 0 9.0625C0 9.58027 0.419733 10 0.9375 10H5.08951C5.80485 10.8867 6.61328 11.6952 7.5 12.4105V16.5625C7.5 17.0803 7.91973 17.5 8.4375 17.5C11.1989 17.5 13.4375 15.2614 13.4375 12.5C13.4375 11.9156 13.3372 11.3546 13.153 10.8333C15.8247 8.37783 17.5 4.85384 17.5 0.9375C17.5 0.419733 17.0803 0 16.5625 0C12.6465 0 9.12123 1.67611 6.66634 4.34717ZM13.75 5.625C13.75 6.66053 12.9105 7.5 11.875 7.5C10.8395 7.5 10 6.66053 10 5.625C10 4.58947 10.8395 3.75 11.875 3.75C12.9105 3.75 13.75 4.58947 13.75 5.625Z" fill="#96B6FF"/>
<path d="M3.62795 12.1026C3.87818 11.6494 3.71358 11.079 3.26029 10.8288C2.80701 10.5786 2.2367 10.7432 1.98646 11.1965C1.51688 12.0471 1.25 13.025 1.25 14.0625C1.25 14.5198 1.30188 14.9662 1.40045 15.3956C1.48084 15.7457 1.75426 16.0192 2.10442 16.0995C2.53383 16.1981 2.98019 16.25 3.4375 16.25C4.47496 16.25 5.4529 15.9831 6.30353 15.5135C6.75681 15.2633 6.92142 14.693 6.67119 14.2397C6.42096 13.7864 5.85065 13.6218 5.39736 13.872C4.81714 14.1924 4.15005 14.375 3.4375 14.375C3.33597 14.375 3.23542 14.3713 3.13598 14.364C3.12871 14.2646 3.125 14.164 3.125 14.0625C3.125 13.3499 3.30765 12.6829 3.62795 12.1026Z" fill="#96B6FF"/>
</svg>
