<svg width="8" height="14" viewBox="0 0 8 14" fill="none" xmlns="http://www.w3.org/2000/svg">
<path fill-rule="evenodd" clip-rule="evenodd" d="M4.53033 0.21967C4.23744 -0.0732233 3.76256 -0.0732233 3.46967 0.21967L0.21967 3.46967C-0.0732233 3.76256 -0.0732233 4.23744 0.21967 4.53033C0.512563 4.82322 0.987437 4.82322 1.28033 4.53033L4 1.81066L6.71967 4.53033C7.01256 4.82322 7.48744 4.82322 7.78033 4.53033C8.07322 4.23744 8.07322 3.76256 7.78033 3.46967L4.53033 0.21967ZM0.21967 10.0303L3.46967 13.2803C3.76256 13.5732 4.23744 13.5732 4.53033 13.2803L7.78033 10.0303C8.07322 9.73744 8.07322 9.26256 7.78033 8.96967C7.48744 8.67678 7.01256 8.67678 6.71967 8.96967L4 11.6893L1.28033 8.96967C0.987437 8.67678 0.512564 8.67678 0.21967 8.96967C-0.0732227 9.26256 -0.0732227 9.73744 0.21967 10.0303Z" fill="#515151"/>
</svg>
